<?xml version="1.0" encoding="utf-8"?>
<!-- Generator: Adobe Illustrator 15.1.0, SVG Export Plug-In . SVG Version: 6.00 Build 0)  -->
<!DOCTYPE svg PUBLIC "-//W3C//DTD SVG 1.1//EN" "http://www.w3.org/Graphics/SVG/1.1/DTD/svg11.dtd">
<svg version="1.1" id="Layer_1" xmlns="http://www.w3.org/2000/svg" xmlns:xlink="http://www.w3.org/1999/xlink" x="0px" y="0px"
	 width="600px" height="87px" viewBox="31.015 0 600 87" enable-background="new 31.015 0 600 87" xml:space="preserve">
<g>
	<path fill="#83BC2C" d="M96.23,5.918c0.425-0.8,1.093-1.688,2.105-1.641c1.591,0.179,2.681,1.551,3.541,2.778
		c2.326,3.562,3.385,7.896,3.236,12.128c-0.167,5.264-3.213,10.046-7.175,13.342C87.04,41.942,74.338,49.011,61.312,55.026
		c-0.78,0.405-1.637,0.658-2.525,0.573c0.242-0.387,0.476-0.777,0.777-1.123c10.559-10.235,19.27-22.16,27.645-34.195
		C90.391,15.607,93.53,10.891,96.23,5.918L96.23,5.918z"/>
	<path fill="#016B5D" d="M160.775,17.622c6.524-5.672,15.245-8.562,23.843-8.41c6.691-0.062,13.528,1.291,19.331,4.736
		c2.718,1.585,5.139,3.616,7.419,5.772c-3.185,3.723-6.401,7.416-9.622,11.11c-4.277-3.85-9.436-7.137-15.31-7.61
		c-6.148-0.707-12.582,1.715-16.591,6.457c-7.803,8.912-6.922,24.146,2.209,31.818c5.407,4.679,13.367,5.453,19.966,3.117
		c3.901-1.384,7.174-4.017,10.22-6.747c3.147,3.288,6.409,6.46,9.607,9.692c-4.842,5.423-11.169,9.733-18.359,11.259
		c-7.286,1.539-15.063,1.442-22.107-1.13c-8.142-2.872-15.041-9.036-18.854-16.771c-3.492-6.88-4.438-14.881-3.27-22.46
		C150.521,30.454,154.601,22.889,160.775,17.622L160.775,17.622z"/>
	<path fill="#016B5D" d="M605.48,10.086c1.244-0.606,2.668-0.472,3.999-0.316c-0.041,0.646-0.082,1.291-0.119,1.938
		c-0.996-0.062-2.26-0.539-3.005,0.379c0.004,1.228,1.529,1.291,2.332,1.833c1.732,0.703,1.848,3.221,0.561,4.396
		c-1.275,1.373-3.324,1.061-4.994,0.935c0.037-0.696,0.074-1.392,0.111-2.087c0.892,0.126,1.823,0.394,2.734,0.186
		c0.557-0.26,0.837-0.956,0.325-1.425c-0.918-0.613-2.101-0.788-2.874-1.602C603.439,13.043,603.96,10.805,605.48,10.086
		L605.48,10.086z"/>
	<path fill="#016B5D" d="M612.108,9.778c0.846,0,1.693,0,2.548-0.004c0.628,1.938,1.271,3.869,1.79,5.84
		c0.531-1.965,1.201-3.891,1.814-5.829c0.834-0.004,1.678-0.007,2.524-0.004c0.514,3.158,1.008,6.319,1.526,9.481
		c-0.808,0-1.608-0.003-2.399-0.011c-0.268-1.901-0.588-3.79-0.825-5.695c-0.498,1.919-1.098,3.805-1.666,5.702
		c-0.723,0-1.437,0.003-2.146,0.003c-0.595-1.894-1.265-3.772-1.682-5.716c-0.219,1.908-0.464,3.809-0.726,5.713
		c-0.759,0.003-1.51,0.007-2.257,0.011C611.083,16.101,611.614,12.943,612.108,9.778L612.108,9.778z"/>
	<path fill="#016B5D" d="M376.761,15.35c5.435-3.065,11.787-4.296,17.99-3.909c4.97,0.186,9.927,1.417,14.297,3.819
		c3.69,1.96,6.948,4.638,9.938,7.536c-1.801,1.699-3.43,3.563-5.207,5.285c-3.546-3.462-7.488-6.735-12.256-8.324
		c-6.732-2.354-14.487-2.068-20.803,1.368c-4.739,2.526-8.544,6.68-10.789,11.545c-2.538,5.486-3.182,11.741-2.273,17.686
		c1.131,7.22,5.14,14.094,11.322,18.106c6.746,4.57,15.707,5.191,23.257,2.377c4.635-1.908,8.614-5.137,12.024-8.76
		c1.682,1.682,3.411,3.313,5.097,4.986c-3.663,3.52-7.55,6.949-12.199,9.104c-5.829,2.81-12.464,3.65-18.857,2.966
		c-7.576-0.822-14.799-4.516-19.932-10.136c-8.717-9.514-10.994-24.019-6.554-35.999C364.517,25.611,369.821,19.128,376.761,15.35
		L376.761,15.35z"/>
	<path fill="#016B5D" d="M560.921,11.553c2.692-0.02,5.388-0.008,8.089-0.008c0.005,2.879-0.007,5.758,0.009,8.637
		c-2.701,0.025-5.398,0.003-8.095,0.015C560.912,17.317,560.924,14.436,560.921,11.553L560.921,11.553z"/>
	<path fill="#016B5D" d="M582.864,14.896c2.354-0.004,4.712-0.007,7.07,0.003c-0.007,4.895,0,9.789,0,14.683
		c5.39,0,10.783,0,16.172,0c0,2.232,0,4.464,0,6.695c-5.389,0-10.782,0-16.172,0c-0.004,9.547,0,19.095-0.004,28.639
		c0.045,1.954,0.372,4.192,1.971,5.517c2.076,1.669,4.913,2.013,7.491,1.726c2.31-0.219,4.429-1.237,6.534-2.149
		c-0.007,2.341,0.009,4.68-0.011,7.022c-4.311,2.149-9.41,2.659-14.044,1.347c-3.095-0.837-5.811-2.973-7.294-5.821
		c-1.365-2.433-1.708-5.265-1.715-8.005c0.003-9.426-0.009-18.849,0.003-28.27c-2.205-0.007-4.407-0.003-6.604-0.003
		c0-2.232,0-4.463,0-6.695c2.201,0,4.403,0.004,6.604-0.003C582.856,24.685,582.864,19.791,582.864,14.896L582.864,14.896z"/>
	<path fill="#35A097" d="M114.313,27.349c1.555-1.061,3.139-2.686,5.211-2.199c1.897,0.74,2.481,2.972,2.856,4.771
		c0.666,4.944,0.019,10.185-2.392,14.6c-1.038,1.978-2.812,3.41-4.564,4.729c-3.547,2.646-7.803,4.042-11.935,5.482
		c-14.521,4.868-29.729,7.383-44.952,8.674c-2.597,0.111-5.188,0.565-7.789,0.312c0-0.229,0.003-0.685,0.007-0.912
		c13.084-4.385,25.741-10.104,37.551-17.262C97.233,39.86,105.662,33.438,114.313,27.349L114.313,27.349z"/>
	<path fill="#016B5D" d="M290.539,27.211c2.689-1.533,5.858-1.979,8.915-1.874c-0.003,5.192,0,10.38,0,15.573
		c-3.447-0.008-7.036,0.527-9.957,2.48c-2.916,1.878-4.809,5.014-5.713,8.308c-1.112,3.805-0.985,7.812-0.978,11.731
		c0,5.084,0,10.166,0,15.248c-4.957,0-9.919,0-14.877,0c0-17.449-0.004-34.9,0.003-52.352c4.954,0.004,9.912,0.004,14.874,0
		c0.022,3.443-0.053,6.888,0.044,10.333C284.387,32.853,286.879,29.231,290.539,27.211L290.539,27.211z"/>
	<path fill="#016B5D" d="M443.828,30.008c2.833-1.023,5.877-1.176,8.862-1.075c0,2.474-0.019,4.944,0.012,7.416
		c-4.445-0.171-9.071,0.804-12.628,3.593c-5.252,3.991-7.719,10.727-7.82,17.167c-0.046,7.062-0.013,14.13-0.017,21.193
		c-2.329,0.008-4.655,0-6.981,0.004c0-16.243,0-32.482,0-48.724c2.325,0,4.65,0,6.978,0c0.004,3.118-0.019,6.234,0.012,9.347
		C435.109,34.903,439.07,31.537,443.828,30.008L443.828,30.008z"/>
	<path fill="#016B5D" d="M561.475,29.588c2.324-0.007,4.648-0.004,6.977-0.004c0,16.242,0,32.481,0,48.724c-2.328,0-4.652,0-6.977,0
		C561.478,62.063,561.478,45.826,561.475,29.588L561.475,29.588z"/>
	<g>
		<path fill="#016B5D" d="M497.796,57.017c0.54-2.985,0.21-6.05-0.261-9.023c-1.191-6.775-5.047-13.303-11.14-16.732
			c-4.779-2.752-10.615-3.329-15.945-2.139c-7,1.674-12.839,6.993-15.669,13.542c-2.19,4.869-2.712,10.354-2.031,15.614
			c0.777,5.742,3.541,11.255,7.882,15.122c4.325,3.883,10.143,6.069,15.956,5.939c4.304,0.034,8.726-0.821,12.419-3.116
			c3.173-1.83,5.896-4.318,8.379-6.993c-1.681-1.506-3.372-3.001-5.08-4.475c-3.303,3.727-7.636,6.996-12.721,7.562
			c-4.218,0.636-8.736-0.156-12.268-2.618c-4.161-2.886-6.843-7.669-7.44-12.672C472.516,56.998,485.153,57.017,497.796,57.017z
			 M459.888,50.493c0.826-5.359,3.686-10.697,8.521-13.419c3.226-1.89,7.167-2.273,10.779-1.462
			c3.291,0.758,6.171,2.897,8.082,5.661c1.891,2.723,2.875,5.974,3.361,9.229C480.385,50.497,470.135,50.512,459.888,50.493z"/>
	</g>
	<g>
		<path fill="#016B5D" d="M550.885,78.303c-0.011-22.84-0.008-45.681-0.005-68.521c-2.327-0.003-4.651,0-6.977,0
			c0,9.068-0.003,18.132,0.004,27.2c-3.534-4.277-8.544-7.416-14.086-8.186c-6.49-1.031-13.326,0.952-18.338,5.177
			c-5.695,4.699-8.935,12.046-8.957,19.393c-0.212,6.171,1.644,12.443,5.557,17.266c4.537,5.664,11.819,9.057,19.092,8.706
			c6.549-0.121,12.717-3.627,16.73-8.71c0,2.56,0,5.119,0,7.681C546.229,78.303,548.558,78.311,550.885,78.303z M540.672,65.092
			c-3.276,4.648-8.886,7.61-14.603,7.424c-3.034-0.142-6.054-1.048-8.564-2.785c-4.256-2.779-6.845-7.643-7.464-12.621
			c-0.495-4.362-0.128-8.955,1.903-12.913c2.095-4.3,6.244-7.494,10.938-8.417c6.23-1.442,13.01,1.09,17.035,5.995
			C545.31,48.214,545.626,58.32,540.672,65.092z"/>
	</g>
	<g>
		<path fill="#016B5D" d="M351.584,57.676c0.492-4.396,0.165-8.877-0.888-13.17c-1.341-5.3-4.081-10.374-8.355-13.866
			c-4.336-3.619-10.065-5.303-15.662-5.247c-5.734-0.172-11.53,1.677-16.033,5.244c-5.215,4.036-8.622,10.18-9.723,16.648
			c-1.022,6.052-0.399,12.471,2.277,18.038c2.243,4.673,5.984,8.597,10.54,11.07c6.39,3.493,14.086,4.208,21.141,2.655
			c5.65-1.221,10.772-4.513,14.346-9.035c-2.863-2.499-5.705-5.024-8.543-7.549c-2.607,2.336-5.616,4.443-9.139,5.051
			c-3.846,0.669-8.134,0.39-11.402-1.945c-2.619-1.842-4.188-4.832-4.88-7.9C327.368,57.664,339.478,57.653,351.584,57.676z
			 M315.094,48.374c0.54-3.109,1.808-6.212,4.162-8.387c3.153-2.909,8.152-3.448,11.942-1.518c3.69,1.863,5.575,5.966,6.104,9.898
			C329.896,48.368,322.495,48.364,315.094,48.374z"/>
	</g>
	<path fill="#016B5D" d="M128.844,52.274c1.439-0.494,3.399-0.549,4.314,0.902c1.023,1.736,0.726,3.883,0.301,5.756
		c-1.204,4.838-4.065,9.213-7.87,12.415c-2.221,1.859-4.932,2.994-7.666,3.876c-5.017,1.562-10.288,2.077-15.514,2.376
		c-9.428,0.518-18.901,0.243-28.281-0.861c-10.042-1.228-20.099-3.263-29.435-7.28c-1.413-0.676-2.982-1.167-4.076-2.35
		c0.6-0.305,1.25-0.502,1.928-0.413c4.708,0.237,9.431,0.359,14.143,0.175c11.59-0.242,23.194-1.369,34.523-3.872
		C103.951,60.183,116.597,56.806,128.844,52.274L128.844,52.274z"/>
	<g>
		<path fill="#016B5D" d="M258.032,33.497c-3.295-4.568-8.881-6.847-14.33-7.457c-8.569-0.904-17.436,0.249-25.279,3.917
			c1.245,3.797,2.473,7.603,3.73,11.396c3.834-1.418,7.822-2.545,11.924-2.76c3.645-0.253,7.703-0.101,10.704,2.247
			c2.376,1.878,3.121,5.078,2.99,7.978c-6.14-2.168-12.839-2.666-19.251-1.568c-4.251,0.781-8.543,2.574-11.314,6.021
			c-3.064,3.7-3.674,8.822-2.99,13.438c0.625,3.88,2.871,7.479,6.156,9.653c4.716,3.22,10.778,3.809,16.294,2.853
			c4.215-0.73,8.076-2.946,11.001-6.041c-0.015,1.831-0.003,3.664-0.015,5.498c4.805,0.022,9.614,0.004,14.42,0.011
			c0-10.168-0.003-20.332,0.004-30.502C262.071,43.062,261.115,37.703,258.032,33.497z M247.446,63.095
			c-0.907,2.466-3.057,4.307-5.474,5.218c-2.63,0.991-5.547,1.27-8.299,0.692c-2.176-0.468-4.333-1.87-5.01-4.087
			c-0.569-2.064-0.323-4.486,1.089-6.171c1.436-1.759,3.704-2.535,5.876-2.879c4.154-0.579,8.436,0.074,12.3,1.686
			C247.904,59.402,248.142,61.332,247.446,63.095z"/>
	</g>
</g>
</svg>
